<svg xmlns="http://www.w3.org/2000/svg" viewBox="0 0 61.5 72.53" id="file"><g data-name="Layer 2"><g><g opacity=".15"><path fill="#b76a8a" d="M61.5 67.53a5 5 0 0 1-5 5h-40a5 5 0 0 1-5-5v-51a5 5 0 0 1 5-5h16.85A13.91 13.91 0 0 1 41.88 15L58 31.11a13.91 13.91 0 0 1 3.54 8.54z" opacity=".15"></path></g><path fill="#6a80b9" d="M47.5 66h-40A7.51 7.51 0 0 1 0 58.53V7.5A7.51 7.51 0 0 1 7.5 0h16.85a16.23 16.23 0 0 1 10.3 4.27l16.08 16.08A16.24 16.24 0 0 1 55 30.65v27.88A7.51 7.51 0 0 1 47.5 66zM5 5v56h45V30.65a11.57 11.57 0 0 0-2.8-6.77L31.12 7.8A11.56 11.56 0 0 0 24.35 5z"></path><path fill="none" stroke="#6a80b9" stroke-miterlimit="10" stroke-width="2" d="M52.5 25.65H29.35V2.5M39.59 35.92H15.41M39.59 43.77H15.41M39.59 51.63H15.41"></path></g></g></svg>