<?xml version="1.0" encoding="utf-8"?><svg xmlns="http://www.w3.org/2000/svg" xmlns:xlink="http://www.w3.org/1999/xlink" width="3000" height="1031" preserveAspectRatio="xMidYMid" viewBox="0 0 3000 1031" style="z-index:1;margin-right:-1.6px;display:block;background-color:rgb(241, 242, 243);animation-play-state:paused" ><g transform="translate(1500,515.5) scale(1,1) translate(-1500,-515.5)" style="transform:matrix(1, 0, 0, 1, 0, 0);animation-play-state:paused" ><g transform="translate(2117.1745149070966,-333.9678440936948) scale(100)" opacity="0.55" style="transform:matrix(100, 0, 0, 100, 2117.17, -333.968);opacity:0.55;animation-play-state:paused" ><path d="M8.924999999999999 0 C8.924999999999999 3.675 11.928991009252329 4.124369467103682 9.76888020707749 7.097506921431613 S6.253109372181095 7.352541953606312 2.7579766747964056 8.488179407934243 S-0.23624750969279962 12.61964488859191 -3.731380207077489 11.48400743426398 S-5.060365872621565 8.219120831038254 -7.220476674796404 5.245983376710323 S-12.075 3.675000000000001 -12.075 1.478761009970429e-15 S-9.380587476971243 -2.2728459223823894 -7.220476674796406 -5.2459833767103214 S-7.226512904462181 -10.348369979936045 -3.7313802070774917 -11.484007434263978 S-0.7371560225882856 -9.623816862262176 2.757976674796404 -8.488179407934245 S7.608769404902649 -10.070644375759546 9.768880207077489 -7.0975069214316155 S8.924999999999997 -3.675000000000002 8.924999999999999 -2.1859945364780254e-15" fill="#0c2836" stroke-width="0" transform="matrix(1,0,0,1,0,0)" style="transform:matrix(1, 0, 0, 1, 0, 0);animation-play-state:paused" ></path></g>
<g transform="translate(2240.609417888516,-503.8614129124338) scale(100)" opacity="0.55" style="transform:matrix(100, 0, 0, 100, 2240.61, -503.861);opacity:0.55;animation-play-state:paused" ><path d="M10.709999999999999 0 C10.709999999999999 4.409999999999999 14.314789211102793 4.9492433605244175 11.722656248492987 8.517008305717935 S7.503731246617313 8.823050344327575 3.309572009755687 10.185815289521093 S-0.28349701163135954 15.143573866310291 -4.477656248492987 13.780808921116774 S-6.072439047145879 9.862944997245904 -8.664572009755686 6.2951800520523875 S-14.489999999999998 4.410000000000001 -14.489999999999998 1.7745132119645146e-15 S-11.256704972365494 -2.7274151068588677 -8.664572009755688 -6.295180052052386 S-8.671815485354616 -12.418043975923254 -4.477656248492989 -13.780808921116773 S-0.8845872271059427 -11.548580234714612 3.3095720097556844 -10.185815289521095 S9.130523285883179 -12.084773250911455 11.722656248492985 -8.517008305717939 S10.709999999999997 -4.410000000000002 10.709999999999999 -2.6231934437736302e-15" fill="#144773" stroke-width="0" transform="matrix(1,0,0,1,0,0)" style="transform:matrix(1, 0, 0, 1, 0, 0);animation-play-state:paused" ></path></g>
<g transform="translate(2536.8531850439226,-911.6059780774074) scale(100)" opacity="0.55" style="transform:matrix(100, 0, 0, 100, 2536.85, -911.606);opacity:0.55;animation-play-state:paused" ><path d="M14.994 0 C14.994 6.1739999999999995 20.04070489554391 6.928940704734183 16.41171874789018 11.923811628005108 S10.505223745264239 12.352270482058607 4.633400813657962 14.260141405329533 S-0.39689581628390247 21.201003412834407 -6.268718747890181 19.293132489563483 S-8.50141466600423 13.808122996144267 -12.13040081365796 8.813252072873343 S-20.285999999999998 6.174000000000002 -20.285999999999998 2.4843184967503206e-15 S-15.759386961311693 -3.8183811496024136 -12.130400813657964 -8.81325207287334 S-12.140541679496463 -17.385261566292556 -6.268718747890186 -19.293132489563483 S-1.2384221179483195 -16.168012328600458 4.633400813657959 -14.260141405329534 S12.78273260023645 -16.91868255127604 16.41171874789018 -11.923811628005113 S14.993999999999998 -6.174000000000003 14.994 -3.6724708212830824e-15" fill="#4e62b3" stroke-width="0" transform="matrix(1,0,0,1,0,0)" style="transform:matrix(1, 0, 0, 1, 0, 0);animation-play-state:paused" ></path></g></g></svg>