<svg xmlns="http://www.w3.org/2000/svg" viewBox="0 0 1024 1024" id="image"><g><path fill="#80C2B8" d="M0 0h1024v1024H0z"></path><g><path fill="#FFF" d="M712 712H312V312h400v400zm-378.947-21.053h357.894V333.053H333.053v357.894z"></path><path fill="#FFF" d="M322.521 627.79a10.46 10.46 0 01-6.861-2.55c-4.406-3.793-4.904-10.433-1.11-14.844l77.291-89.813a10.53 10.53 0 017.5-3.65c2.934-.194 5.72.937 7.802 2.952l66.607 64.493L591.158 442.14c2.06-2.498 4.96-3.897 8.419-3.825a10.536 10.536 0 018.182 4.297l102.2 139.35c3.439 4.69 2.427 11.277-2.261 14.722-4.693 3.443-11.277 2.415-14.71-2.262l-94.203-128.454L482.73 606.573a10.518 10.518 0 01-7.53 3.802 10.602 10.602 0 01-7.91-2.938l-66.771-64.66-70.015 81.353a10.51 10.51 0 01-7.982 3.66zM459.369 475.158c-26.121 0-47.37-21.248-47.37-47.369 0-26.12 21.249-47.367 47.37-47.367 26.12 0 47.368 21.247 47.368 47.367 0 26.121-21.248 47.37-47.368 47.37zm0-73.684c-14.51 0-26.317 11.8-26.317 26.315s11.806 26.316 26.317 26.316c14.509 0 26.315-11.801 26.315-26.316 0-14.515-11.806-26.315-26.315-26.315z"></path></g></g></svg>