<?xml version="1.0" encoding="utf-8"?>
<!-- Generator: Adobe Illustrator 27.5.0, SVG Export Plug-In . SVG Version: 6.00 Build 0)  -->
<svg version="1.1" id="_x3C_Layer_x3E_" xmlns="http://www.w3.org/2000/svg" xmlns:xlink="http://www.w3.org/1999/xlink" x="0px"
	 y="0px" viewBox="0 0 3200 1600" style="enable-background:new 0 0 3200 1600;" xml:space="preserve">
<rect style="fill:#FFFFFF;" width="3200" height="1600"/>
<g>
	<path style="fill:#EBF2F9;" d="M2857.852,1454.967l-622.697-0.184l-528.788-0.153l-72.826-0.02l-1233.26-0.366
		c0,0-65.023-160.777-47.599-334.622c2.175-21.745,5.639-43.692,10.69-65.554c0.019-0.066,0.028-0.125,0.048-0.191
		c3.098-13.422,6.793-26.807,11.151-40.094c18.435-56.229,48.724-110.697,95.909-158.315
		c286.11-288.737,655.843-47.387,794.578-54.42c138.725-7.043,146.548-284.09,561.06-317.179
		c229.92-18.349,476.735,24.593,556.441,217.411c31.405,75.982,36.87,175.23,5.128,303.17
		c-18.463,74.414-2.627,119.935,32.589,149.415c73.153,61.262,229.968,53.343,336.885,91.483
		C2836.828,1273.761,2888.795,1327.748,2857.852,1454.967z"/>
	<path style="fill:#F8FBFF;" d="M2420.276,1153.865L622.83,1387.393c-16.309-59.076-24.69-123.225-20.476-191.586L2382.56,701.28
		c31.405,75.982,36.87,175.23,5.128,303.17C2369.225,1078.864,2385.061,1124.385,2420.276,1153.865z"/>
	<path style="fill:#F8FBFF;" d="M1668.62,792.042l-1315.938,327.58c2.175-21.745,5.639-43.692,10.69-65.554
		c0.019-0.066,0.028-0.125,0.048-0.191c3.098-13.422,6.793-26.807,11.151-40.094L1668.62,792.042z"/>
	<path style="fill:#C9E0F2;" d="M1633.55,1454.63l-1233.27-0.386c0,0-82.304-203.508-36.908-400.176
		c0.019-0.066,0.028-0.125,0.048-0.191c76.203-3.551,201.401,5.417,333.199,80.359c208.136,118.367,549.85,31.762,648.751,98.151
		c98.901,66.399,121.608,135.146,195.157,146.962c64.167,10.305,88,62.194,93.013,75.261
		C1633.55,1454.619,1633.55,1454.619,1633.55,1454.63z"/>
	<path style="fill:#F8FBFF;" d="M2131.135,656.873c0-18.998,15.399-34.398,34.397-34.398c18.997,0,34.397,15.4,34.397,34.398
		c0,18.997-15.4,34.398-34.397,34.398C2146.534,691.271,2131.135,675.87,2131.135,656.873z"/>
	<path style="fill:#A8D29F;" d="M2010.303,1356.405c34.145-10.707,78.076-28.128,54.188-41.206
		c-25.59-14.01-58.216,15.718-75.91,35.39c-0.915-0.153-1.835-0.299-2.762-0.432c-4.52-0.647-9.105-0.948-13.75-0.968
		c33.719-54.052,71.336-125.998,39.305-135.147c-34.518-9.859-59.248,77.628-71.456,138.909
		c-33.73,7.32-70.016,23.688-107.823,34.599c-13.359-48.586-44.118-121.047-108.558-119.45
		c-67.669,1.676,16.818,80.328,73.738,127.471c-12.725,2.06-25.579,3.048-38.527,2.445c-82.747-3.849-134.592,52.245-134.592,52.245
		l444.409-0.005C2085.251,1423.805,2059.972,1375.018,2010.303,1356.405z"/>
	<g>
		<path style="fill:#FFB27D;" d="M1257.148,265.637c0,0-30.974-33.789-40.547-34.915c-9.573-1.126-48.994,17.757-51.247,25.21
			c-2.252,7.453,43.362-7.453,45.897,0c2.534,7.453,5.35,12.521,18.302,13.085c12.952,0.563,24.216,7.884,24.216,7.884
			L1257.148,265.637z"/>
		<path style="fill:#233862;" d="M1294.308,1450.258c-9.842-6.008-4.241-50.822-4.241-50.822s45.861-36.689,52.167-8.6
			c6.307,28.091,43.569,40.702,64.78,44.143c14.642,2.374,19.175,10.483,20.578,15.279H1294.308z"/>
		<path style="fill:#2B478B;" d="M1286.094,1421.775c-11.752-4.434-77.189-161.517-74.469-212.522
			c0.326-6.052-0.856-55.685-2.721-65.967c-1.454-8.011-3.399-17.342-5.738-27.692c-3.578-15.764-8.039-33.908-13.004-53.372
			c-13.914-54.691-31.637-119.72-43.864-171.486c21.938-49.197,50.054-92.259,75.841-106.962c18.403,2.244,36.14,5.645,49.278,8.487
			c10.474,6.148,18.294,11.412,24.102,15.9c2.041,10.2,5.019,27.216,7.427,49.128c1.551,14.336,2.856,30.779,3.469,48.761
			c4.365,127.596-17.94,266.249,38.94,492.563C1346.946,1404.924,1304.292,1428.645,1286.094,1421.775z"/>
		<path style="fill:#233862;" d="M1302.945,857.289c-9.479,47.442-32.29,148.826-112.783,204.933
			c-13.914-54.691-31.637-119.72-43.864-171.486c21.938-49.197,50.054-92.259,75.841-106.962c18.403,2.244,36.14,5.645,49.278,8.487
			c10.474,6.148,18.294,11.412,24.102,15.9C1297.56,818.361,1300.537,835.377,1302.945,857.289z"/>
		<path style="fill:#FFB27D;" d="M1203.979,410.963l-0.043,7.958c0,0,2.168,24.889-28.479,28.522
			c-30.646,3.645-53.863-9.705-53.032-28.91c2.761-14.871,5.79-25.082,5.995-37.387c0.075-4.572-0.237-9.425-1.089-14.902
			l59.384-1.187l17.491,2.858L1203.979,410.963z"/>
		<path style="fill:#E8945B;" d="M1204.205,367.916l-0.227,43.047c-6.309,2.934-13.426,4.723-21.405,4.723
			c-27.293,0-44.935-20.014-54.154-34.539c0.075-4.572-0.237-9.425-1.089-14.902l59.384-1.187L1204.205,367.916z"/>
		<path style="fill:#FFB27D;" d="M1207.67,388.834c0,0-76.055,15.363-84.894-32.148c-8.839-47.511-24.608-77.525,23.577-89.344
			c48.187-11.818,61.021,4.551,67.828,19.691C1220.989,302.175,1227.227,383.612,1207.67,388.834z"/>
		<path style="fill:#233862;" d="M1152.912,1450.256c0,0-4.154-22.738-10.737-35.902c-6.582-13.164-48.468-4.786-48.468-4.786
			s-8.377,7.181-10.173,40.688H1152.912z"/>
		<path style="fill:#2B478B;" d="M1234.987,808.918c0,0-41.69,185.754-55.054,269.6c-5,31.371-15.42,131.88-17.046,163.605
			c-2.233,43.538-16.59,176.787-16.59,176.787s-24.215-15.302-60.146-1.021c0,0-9.077-59.728-14.849-184.834
			c-1.691-36.674,5.395-91.76,4.534-109.65c-4.231-87.977-32.336-315.442-9.989-330.04
			C1088.193,778.768,1234.987,808.918,1234.987,808.918z"/>
		<path style="fill:#233862;" d="M1228.971,251.736c0,0-21.21-1.632-46.226-12.508c-20.303-8.828-45.919,0.894-54.234,5.275
			c0.224-1.34,0.759-3.169,2.028-5.002c0,0-3.733,2.647-4.284,6.347c-0.384,0.284-0.557,0.479-0.456,0.544
			c0,0-4.233-0.774-6.952,0.45c0,0,1.903-0.272,2.583,0.952c0.072,0.129,0.18,0.239,0.305,0.336
			c-31.672,15.304-34.597,65.358-24.404,76.94c12.262,13.935,26.965,45.314,26.965,45.314s5.363-7.413,3.133-19.676
			c-2.229-12.262,8.361-12.262,21.738-17.836c13.377-5.573,2.229-21.18,13.934-30.655c11.706-9.476,54.624-3.902,54.066-11.148
			C1233.097,285.267,1228.971,253.368,1228.971,251.736z"/>
		<path style="fill:#EE9849;" d="M1249.274,249.201c0,0-6.406,2.598-10.256,11.656c-4.923,11.589-0.911,17.914-0.911,17.914
			s80.493,72.999,75.257,86.287c-2.734,6.942-65.095,43.51-91.007,58.472c-10.656-0.891-18.902-0.815-19.165-0.815l-0.014,0.015
			c0,0-17.627,53.711-80.751-4.189c-11.086,16.131-97.033,55.738-82.112,124.099c3.51,16.063,6.542,31.216,9.153,45.511
			c17.736,96.856,16.35,153.995,12.895,185.51c-2.693,24.592-12.895,27.066-3.768,33.609c0,0,17.75,7.957,50.965,14.839
			c24.687,5.114,57.914,9.657,98.732,9.915c64.934,0.408,89.511-21.966,89.511-21.966c17.192-16.812-16.811-82.968-14.091-130.723
			c1.398-24.499-0.138-108.373-0.378-146.913c0.003-0.002,0.012-0.012,0.024-0.023c0.014-0.014,0.027-0.027,0.055-0.055
			c3.114-3.414,98.106-107.928,116.809-167.257c0-0.014,0.014-0.014,0.014-0.027c0.938-2.992,1.688-5.862,2.217-8.609
			C1408.125,327.246,1249.274,249.201,1249.274,249.201z"/>
		<path style="fill:#E58638;" d="M1062.363,773.658c3.455-31.515,4.842-88.654-12.895-185.51c1.216-3.853,2.422-7.558,3.612-11.091
			c5.382-15.97,28.232-15.169,32.452,1.146C1098.643,628.88,1110.443,715.029,1062.363,773.658z"/>
		<path style="fill:#FFB27D;" d="M1042.975,720.705c0,0,39.479-23.866,51.714-20.84c12.235,3.024,38.78,14.563,37.136,21.617
			c-1.645,7.055-32.482,11.867-37.848,11.037c-5.366-0.829-14.026,0.145-17.544,3.177c-3.517,3.032-31.493,4.165-34.907-4.025
			C1038.11,723.481,1042.975,720.705,1042.975,720.705z"/>
		<path style="fill:#EE9849;" d="M1122.424,418.533c0,0-48.399,3.506-74.695,18.92c-17.015,9.975-115.613,167.072-115.613,190.193
			c0,23.123,103.538,105.147,103.538,105.147s19.216,6.384,19.896-24.219c0,0-51.647-76.347-48.927-85.188
			c1.708-5.554,77.829-66.616,77.829-66.616L1122.424,418.533z"/>
		<path style="fill:#E58638;" d="M1400.223,365.085c-18.702,59.329-113.694,163.843-116.809,167.257
			c-0.027,0.027-0.041,0.041-0.055,0.055c-0.014,0.013-0.027,0.027-0.027,0.027s0-0.015-0.014-0.027
			c-0.271-1.048-8.105-30.943,10.596-52.324C1312.956,458.31,1378.664,403.768,1400.223,365.085z"/>
		<g>
			<path style="fill:#E58638;" d="M1104.174,427.479c-0.208-4.193,19.656-9.988,19.656-9.988s22.735,31.523,60.193,32.068
				c0,0-10.674,20.774-23.256,26.153C1160.768,475.713,1105.411,452.384,1104.174,427.479z"/>
			<path style="fill:#E58638;" d="M1184.023,448.822c0,0,19.844-11.764,19.912-24.518c0,0,12.814-1.603,18.413,4.611
				c0,0,4.705,21.856-1.536,34.551C1220.813,463.467,1192.237,459.114,1184.023,448.822z"/>
			<path style="fill:#C65447;" d="M1253.014,744.932c-0.38,10.297-4.582,20.09-11.792,27.462l-11.329,11.588
				c-2.843,2.911-7.563,2.775-10.242-0.285l-15.724-17.954c-4.216-4.815-6.406-11.072-6.134-17.464
				c0.639-14.241,1.782-41.675,2.462-68.13c0.558-21.435,0.815-42.246,0.259-54.868c-1.782-40.301-16.485-168.345-16.485-168.345
				h9.685c0,0,26.59,48.611,42.694,115.802c3.972,16.54,7.29,34.194,9.439,52.543
				C1245.847,625.28,1254.715,698.388,1253.014,744.932z"/>
			<path style="fill:#BA4C43;" d="M1170.553,446.93l26.908-6.448c0,0,3.515,0.306,3.417,4.688
				c-0.097,4.383-7.578,17.19-10.892,18.213C1186.673,464.407,1164.188,455.799,1170.553,446.93z"/>
			<path style="fill:#EE9849;" d="M1104.174,421.358c-0.208-4.193,19.656-9.988,19.656-9.988s22.735,31.523,60.193,32.068
				c0,0-10.674,20.774-23.256,26.153C1160.768,469.592,1105.411,446.264,1104.174,421.358z"/>
			<path style="fill:#EE9849;" d="M1184.023,443.439c0,0,19.844-11.764,19.912-24.518c0,0,12.814-1.603,18.413,4.61
				c0,0,4.705,21.856-1.536,34.552C1220.813,458.083,1192.237,453.729,1184.023,443.439z"/>
			<path style="fill:#BA4C43;" d="M1253.014,744.932c-0.38,10.297-4.582,20.09-11.792,27.462l-11.329,11.588
				c-2.843,2.911-7.563,2.775-10.242-0.285l-15.724-17.954c-4.216-4.815-6.406-11.072-6.134-17.464
				c0.639-14.241,1.782-41.675,2.462-68.13c25.122-31.378,33.771-73.38,36.152-107.411c3.972,16.54,7.29,34.194,9.439,52.543
				C1245.847,625.28,1254.715,698.388,1253.014,744.932z"/>
		</g>
	</g>
	<g>
		<path style="fill:#233862;" d="M1010.948,1450.256H846.37c-8.977,0-16.321-7.344-16.321-16.321V1323.36
			c0-8.978,7.345-16.322,16.321-16.322h164.578c8.977,0,16.322,7.345,16.322,16.322v110.574
			C1027.271,1442.912,1019.925,1450.256,1010.948,1450.256z"/>
		<path style="fill:#2B478B;" d="M1012.308,1323.36v110.579c0,8.977-7.345,16.321-16.321,16.321H831.409
			c-8.977,0-16.321-7.345-16.321-16.321V1323.36c0-8.978,7.345-16.322,16.321-16.322h164.577
			C1004.963,1307.038,1012.308,1314.383,1012.308,1323.36z"/>
		<g>
			<path style="fill:#233862;" d="M877.739,1307.038c10.528-12.44,24.241-17.342,33.013-17.342c21.46,0,33.439,16.697,33.889,17.342
				l-5.228,0.349c-0.384-0.544-8.874-11.229-27.415-11.229c-7.62,0-18.8,0.032-27.98,10.881
				C883.424,1307.74,877.611,1307.189,877.739,1307.038z"/>
		</g>
		<path style="fill:#233862;" d="M1012.308,1327.894v32.14c0,8.978-7.345,16.322-16.321,16.322H831.409
			c-8.977,0-16.321-7.345-16.321-16.322v-32.14c0-8.978,7.345-16.321,16.321-16.321h164.577
			C1004.963,1311.572,1012.308,1318.916,1012.308,1327.894z"/>
		<path style="fill:#2B478B;" d="M1012.308,1323.36v32.14c0,8.978-7.345,16.322-16.321,16.322H831.409
			c-8.977,0-16.321-7.345-16.321-16.322v-32.14c0-8.978,7.345-16.322,16.321-16.322h164.577
			C1004.963,1307.038,1012.308,1314.383,1012.308,1323.36z"/>
		<path style="fill:#233862;" d="M905.764,1359.178c0-2.755,2.233-4.988,4.987-4.988c2.755,0,4.987,2.233,4.987,4.988
			c0,2.754-2.232,4.986-4.987,4.986C907.997,1364.164,905.764,1361.932,905.764,1359.178z"/>
	</g>
	<path style="fill:#A8D29F;" d="M2857.852,1454.967l-622.697-0.184l-0.827-0.153c0,0,54.844-75.55,161.664-75.28
		c106.811,0.27,105.473-55.152,245.372-89.655c41.422-10.218,80.832-26.488,115.798-44.346
		C2836.828,1273.761,2888.795,1327.748,2857.852,1454.967z"/>
	<g>
		<path style="fill:#F1A34F;" d="M1923.289,555.606v880.252c0,7.919-6.042,14.402-13.423,14.402h-13.422
			c-3.685,0-7.024-1.61-9.458-4.212c-2.444-2.612-3.965-6.226-3.965-10.19V555.606c0-5.172,2.569-9.725,6.408-12.255
			c2.041-1.362,4.446-2.147,7.015-2.147h13.422C1917.247,541.205,1923.289,547.678,1923.289,555.606z"/>
		<path style="fill:#E58638;" d="M1893.385,553.542v880.252c0,5.162-2.569,9.726-6.398,12.255c-2.444-2.612-3.965-6.226-3.965-10.19
			V555.606c0-5.172,2.569-9.725,6.408-12.255C1891.864,545.953,1893.385,549.567,1893.385,553.542z"/>
		<polygon style="fill:#F1A34F;" points="1739.643,899.128 1665.349,949.203 1732.717,1008.268 1899.453,997.753 1899.453,930.401 
					"/>
		<path style="fill:#CE8032;" d="M1888.316,939.6c-0.76,2.053-0.518,4.911,0.541,6.386c1.059,1.474,2.531,1.005,3.293-1.048
			c0.759-2.053,0.518-4.912-0.541-6.386C1890.551,937.078,1889.076,937.547,1888.316,939.6z"/>
		<path style="fill:#CE8032;" d="M1888.316,979.425c-0.76,2.054-0.518,4.912,0.541,6.386c1.059,1.475,2.531,1.005,3.293-1.047
			c0.759-2.054,0.518-4.912-0.541-6.387C1890.551,976.903,1889.076,977.373,1888.316,979.425z"/>
		<g>
			<polygon style="fill:#F1A34F;" points="2169.111,763.063 2285.205,813.047 2173.572,872.33 1906.423,863.05 1906.423,779.662 			
				"/>
			<polygon style="fill:#E89746;" points="2169.111,763.063 2185.976,763.063 2302.07,813.047 2285.205,813.047 			"/>
			<polygon style="fill:#CE8032;" points="2173.572,872.33 2182.561,872.33 2302.07,813.047 2285.205,813.047 			"/>
			<path style="fill:#CE8032;" d="M1923.902,792.177c0.976,2.634,0.665,6.302-0.693,8.192c-1.357,1.891-3.249,1.289-4.224-1.344
				c-0.976-2.634-0.665-6.302,0.692-8.192C1921.036,788.941,1922.928,789.544,1923.902,792.177z"/>
			<path style="fill:#CE8032;" d="M1923.902,843.269c0.976,2.634,0.665,6.302-0.693,8.192c-1.357,1.892-3.249,1.289-4.224-1.344
				c-0.976-2.634-0.665-6.302,0.692-8.192C1921.036,840.033,1922.928,840.635,1923.902,843.269z"/>
		</g>
		<g>
			<polygon style="fill:#F1A34F;" points="1643.734,618.464 1527.641,668.448 1639.272,727.732 1906.423,718.451 1906.423,635.063 
							"/>
			<polygon style="fill:#E89746;" points="1643.734,618.464 1626.869,618.464 1510.775,668.448 1527.641,668.448 			"/>
			<polygon style="fill:#CE8032;" points="1639.272,727.732 1630.284,727.732 1510.775,668.448 1527.641,668.448 			"/>
			<path style="fill:#CE8032;" d="M1888.943,647.578c-0.976,2.634-0.665,6.302,0.692,8.192c1.358,1.892,3.249,1.289,4.225-1.344
				c0.975-2.634,0.665-6.302-0.693-8.192C1891.81,644.343,1889.918,644.945,1888.943,647.578z"/>
			<path style="fill:#CE8032;" d="M1888.943,698.67c-0.976,2.634-0.665,6.302,0.692,8.192c1.358,1.892,3.249,1.289,4.225-1.344
				c0.975-2.634,0.665-6.302-0.693-8.192C1891.81,695.435,1889.918,696.037,1888.943,698.67z"/>
		</g>
		<polygon style="fill:#E89746;" points="1739.643,899.128 1730.021,899.128 1651.123,949.646 1665.349,949.646 		"/>
		<polygon style="fill:#CE8032;" points="1732.717,1008.268 1719.758,1008.268 1651.123,949.646 1665.349,949.646 		"/>
		<path style="fill:#F1A34F;" d="M1953.184,1350.917v99.344h-100.065v-99.728c0-18.513,14.048-33.725,32.06-35.582
			c1.222-0.125,2.463-0.191,3.714-0.191h28.134C1937,1314.76,1953.184,1330.952,1953.184,1350.917z"/>
		<path style="fill:#E58638;" d="M1917.584,1350.917v99.344h-64.466v-99.728c0-18.513,14.048-33.725,32.06-35.582
			C1903.392,1316.827,1917.584,1332.223,1917.584,1350.917z"/>
		<g>
			<g>
				<path style="fill:#E58638;" d="M1907.804,513.275v-3.466h-8.84l0.003,0.057c-2.41,0.23-4.497,1.202-6.257,2.919
					c-2.032,1.983-3.048,4.426-3.048,7.328c0,2.808,1.039,5.225,3.121,7.256c2.078,2.032,4.521,3.048,7.328,3.048h7.692v-3.465
					c1.636-1.892,2.467-4.168,2.467-6.839C1910.271,517.443,1909.439,515.167,1907.804,513.275z"/>
				<path style="fill:#E58638;" d="M1924.783,428.831c-6.29-5.319-14.128-7.981-23.511-7.981c-6,0-11.707,1.379-17.125,4.136
					c-5.419,2.757-9.627,6.653-12.626,11.682c-1.838,3.099-2.757,6.193-2.757,9.288c0,2.42,0.749,4.428,2.249,6.023
					c1.5,1.597,3.412,2.395,5.733,2.395h7.692c0,0-0.094-2.886-0.099-4.86l5.321-7.185c2.805-2.805,6.531-4.209,11.176-4.209
					c3.965,0,7.277,1.089,9.94,3.266c2.659,2.176,3.991,5.249,3.991,9.215c0,4.549-1.404,8.079-4.21,10.594
					c-2.031,1.84-5.515,3.533-10.448,5.08c-3.677,1.161-6.12,2.346-7.328,3.556c-1.212,1.21-1.815,3.024-1.815,5.441v14.513
					c0,2.902,0.772,5.321,2.323,7.256c1.547,1.936,3.724,2.902,6.531,2.902h7.691v-4.397c0.346-0.688,0.648-1.43,0.871-2.278
					c0.384-1.546,0.578-5.515,0.578-11.901c7.934-1.547,14.199-4.956,18.795-10.23c4.594-5.272,6.893-11.922,6.893-19.955
					C1934.65,441.99,1931.36,434.541,1924.783,428.831z"/>
			</g>
			<g>
				<path style="fill:#F1A34F;" d="M1942.344,451.18c0,8.033-2.299,14.683-6.894,19.955c-4.596,5.274-10.861,8.684-18.795,10.23
					c0,6.387-0.193,10.355-0.579,11.9c-1.16,4.451-4.017,6.676-8.563,6.676c-2.807,0-4.984-0.967-6.53-2.902
					c-1.55-1.935-2.323-4.354-2.323-7.256v-14.513c0-2.417,0.604-4.231,1.815-5.441c1.208-1.21,3.651-2.395,7.328-3.556
					c4.934-1.547,8.417-3.24,10.448-5.08c2.806-2.515,4.21-6.045,4.21-10.594c0-3.966-1.331-7.038-3.991-9.215
					c-2.663-2.177-5.977-3.266-9.94-3.266c-4.645,0-8.37,1.404-11.176,4.209l-5.804,7.836c-2.032,2.808-4.404,4.209-7.111,4.209
					c-2.321,0-4.234-0.798-5.733-2.395c-1.5-1.596-2.248-3.603-2.248-6.023c0-3.095,0.919-6.19,2.756-9.288
					c2.999-5.028,7.207-8.925,12.627-11.682c5.417-2.757,11.124-4.136,17.125-4.136c9.382,0,17.22,2.662,23.509,7.981
					C1939.053,434.541,1942.344,441.99,1942.344,451.18z M1917.963,520.114c0,2.902-0.969,5.346-2.902,7.328
					c-1.937,1.981-4.354,2.975-7.257,2.975c-2.807,0-5.25-1.016-7.328-3.048c-2.083-2.031-3.121-4.447-3.121-7.255
					c0-2.903,1.017-5.346,3.048-7.328c2.032-1.983,4.499-2.976,7.401-2.976s5.32,0.993,7.257,2.976
					C1916.994,514.769,1917.963,517.211,1917.963,520.114z"/>
			</g>
		</g>
	</g>
	<path style="fill:#82B378;" d="M252.789,1450.869l468.162,3.062c0,0-43.289-87.027-150.709-68.41
		c-67.797,11.75-90.253-5.969-118.149-23.354c51.649-19.542,128.163-51.84,92.546-59.65c-33.987-7.453-80.321,25.655-108.848,50.259
		c-5.968-3.066-12.471-5.921-19.835-8.372c61.058-57.031,175.971-170.737,125.212-173.978
		c-49.8-3.179-112.824,109.314-142.811,169.343c-3.453-0.687-7.076-1.288-10.892-1.792c-15.536-2.052-30.027,0.761-43.315,6.648
		c-6.616-24.909-18.843-53.401-35.091-47.599c-16.4,5.857,2.143,34.722,19.163,56.41
		C281.068,1384.775,252.789,1450.869,252.789,1450.869z"/>
	<path style="fill:#2E3552;" d="M2989.005,1457.603H226.297c-1.726,0-3.137-1.412-3.137-3.137v-1.07
		c0-1.726,1.411-3.138,3.137-3.138h2762.708c1.725,0,3.137,1.412,3.137,3.138v1.07
		C2992.142,1456.19,2990.729,1457.603,2989.005,1457.603z"/>
</g>
</svg>
